# xmcd
#
# Track frame offsets: 
#        150
#        16850
#        35376
#        52236
#        70485
#        87048
#        103095
#        119506
#        142164
#        154915
#        168839
#        183779
#        201108
#        215174
#
# Disc length: 3188 seconds
#
# Revision: 0
# Processed by: cddbd v1.5.1PL0 Copyright (c) Steve Scherf et al.
# Submitted via: ExactAudioCopy v0.90b4
#
DISCID=cb0c720e
DTITLE=Studebaker John - Promise Of Love
DYEAR=2000
DGENRE=Blues
TTITLE0=What More Can A Man Ask For
TTITLE1=This Road
TTITLE2=Promise Of Love
TTITLE3=Can You Feel It
TTITLE4=Nothin For Nothing
TTITLE5=Nothing But The Blues
TTITLE6=Twistin With Lucy
TTITLE7=Highway Bound
TTITLE8=Storm
TTITLE9=Middle Of NoWhere
TTITLE10=Can You Tell Me Why
TTITLE11=Shake It
TTITLE12=Let It Roll On
TTITLE13=All Or Nothing
EXTD=
EXTT0=
EXTT1=
EXTT2=
EXTT3=
EXTT4=
EXTT5=
EXTT6=
EXTT7=
EXTT8=
EXTT9=
EXTT10=
EXTT11=
EXTT12=
EXTT13=
PLAYORDER=
